<?xml version="1.0" encoding="UTF-8" standalone="no"?>
<!-- Created with Inkscape (http://www.inkscape.org/) -->

<svg
   width="72mm"
   height="100mm"
   viewBox="0 0 71.999999 99.999999"
   version="1.1"
   id="svg1"
   xml:space="preserve"
   inkscape:version="1.3.1 (91b66b0783, 2023-11-16)"
   sodipodi:docname="tt-designed-for4.svg"
   xmlns:inkscape="http://www.inkscape.org/namespaces/inkscape"
   xmlns:sodipodi="http://sodipodi.sourceforge.net/DTD/sodipodi-0.dtd"
   xmlns="http://www.w3.org/2000/svg"
   xmlns:svg="http://www.w3.org/2000/svg"><sodipodi:namedview
   id="namedview1"
   pagecolor="#ffffff"
   bordercolor="#666666"
   borderopacity="1.0"
   inkscape:showpageshadow="2"
   inkscape:pageopacity="0.0"
   inkscape:pagecheckerboard="0"
   inkscape:deskcolor="#d1d1d1"
   inkscape:document-units="mm"
   inkscape:zoom="1.375477"
   inkscape:cx="137.77039"
   inkscape:cy="168.30525"
   inkscape:window-width="2560"
   inkscape:window-height="1369"
   inkscape:window-x="-8"
   inkscape:window-y="-8"
   inkscape:window-maximized="1"
   inkscape:current-layer="layer1"
   showgrid="false" /><defs
   id="defs1" /><g
   inkscape:label="Layer 1"
   inkscape:groupmode="layer"
   id="layer1"
   transform="translate(-69.056343,-100.98769)"><g
   id="g1"
   transform="matrix(0.26458333,0,0,0.26458333,14.877084,87.978126)">
	<path
   d="m 341,96.4 c -44.5,0 -83.9,21.9 -108.1,55.5 -7.9,11 -14.2,23.2 -18.5,36.4 h 21.6 52.1 v 90.1 h 39.3 v -24.3 h 22.7 v 87.8 c -3,0.3 -6.1,0.4 -9.2,0.4 -62.2,0 -112.8,-50.6 -112.8,-112.8 0,-10.3 1.4,-20.2 4,-29.6 h -21 c -2.2,9.5 -3.3,19.4 -3.3,29.6 0,73.4 59.7,133.1 133.1,133.1 3.1,0 6.1,-0.1 9.2,-0.3 1.7,-0.1 3.4,-0.3 5.1,-0.5 0.1,0 0.3,0 0.4,0 11.8,-1.3 23.1,-4.1 33.8,-8.3 v 0 c 0,0 0,0 0,0 V 254.1 H 428 V 217.7 H 327.5 V 188.2 H 366 V 151.8 H 259.3 c 20.5,-21.6 49.6,-35.1 81.7,-35.1 62.2,0 112.8,50.6 112.8,112.8 0,40.1 -21,75.4 -52.6,95.4 v 23.4 c 43.3,-22 73,-67 73,-118.8 C 474.1,156.1 414.4,96.4 341,96.4 Z"
   id="path1" />
  </g>
  <path
   d="m 79.374998,183.31866 -1.911856,-1.37222 -4.249257,5.92028 -0.775825,-0.55684 4.249257,-5.9203 -1.907239,-1.3689 0.503812,-0.70193 4.59492,3.29797 z m 1.456539,0.76725 q -0.2162,-0.12576 -0.282779,-0.36176 -0.06658,-0.23601 0.06489,-0.46204 0.131472,-0.22602 0.369536,-0.28483 0.240922,-0.0637 0.457122,0.062 0.221113,0.12861 0.284835,0.36953 0.07149,0.23887 -0.05997,0.4649 -0.125756,0.2162 -0.371593,0.27706 -0.240922,0.0637 -0.462035,-0.0649 z m -3.27668,6.53773 -0.805834,-0.46872 2.92667,-5.03154 0.805834,0.46872 z m 6.659468,3.273 -0.848695,-0.38573 1.373579,-3.02218 q 0.766757,-1.68704 -0.464885,-2.24682 -0.636521,-0.2893 -1.274431,0.001 -0.630383,0.28794 -0.962018,1.01761 l -1.373578,3.02219 -0.848695,-0.38574 2.408466,-5.29916 0.848695,0.38572 -0.399843,0.87975 0.0207,0.01 q 1.056588,-0.7311 2.195081,-0.21366 0.869394,0.39514 1.073597,1.16854 0.206554,0.76823 -0.275609,1.82909 z m 8.465194,-3.34955 -4.55498,5.65899 q -1.218851,1.51491 -2.456901,1.13156 -0.347523,-0.10758 -0.559158,-0.2505 l 0.247157,-0.79821 q 0.257528,0.18686 0.49645,0.26083 0.673326,0.20848 1.258826,-0.49092 l 0.771444,-0.91556 -0.453691,-6.22204 0.988269,0.30601 0.179227,4.74461 q 0.002,0.0899 -0.01712,0.45884 l 0.03258,0.01 q 0.06751,-0.12192 0.236383,-0.37906 l 2.9084,-3.80047 z m 9.555121,-0.0432 -2.336836,-0.27809 -0.861134,7.23633 -0.948286,-0.11285 0.861133,-7.23633 -2.331205,-0.27742 0.102102,-0.85796 5.616336,0.66835 z m 3.86629,7.21368 -0.93222,-0.006 0.005,-0.90948 -0.0228,-1.4e-4 q -0.6146,1.04221 -1.79692,1.035 -0.8697,-0.005 -1.36143,-0.46873 -0.48604,-0.4634 -0.48141,-1.22509 0.01,-1.6314 1.93285,-1.88685 l 1.74656,-0.23381 q 0.009,-1.48359 -1.19034,-1.4909 -1.05159,-0.007 -1.90291,0.70466 l 0.005,-0.95496 q 0.86165,-0.54046 1.98146,-0.53364 2.05202,0.0125 2.03879,2.18389 z m -0.91429,-2.95013 -1.4052,0.18471 q -0.64856,0.087 -0.97967,0.31806 -0.33107,0.22536 -0.33463,0.81084 -0.002,0.42633 0.29701,0.70101 0.30532,0.26902 0.81122,0.2721 0.69348,0.004 1.14548,-0.47621 0.45772,-0.48608 0.46226,-1.23071 z m 4.21973,1.87081 -0.0226,0.003 0.43968,3.49106 -0.92494,0.11648 -1.06189,-8.43155 0.92493,-0.11649 0.12786,1.01518 0.0226,-0.003 q 0.53751,-1.23647 1.85159,-1.40198 1.11669,-0.14063 1.84073,0.55883 0.72334,0.69381 0.88742,1.99661 0.18254,1.44944 -0.41234,2.41241 -0.59559,0.95731 -1.81944,1.11145 -1.12233,0.14135 -1.8536,-0.752 z m -0.31591,-2.32641 0.10153,0.8065 q 0.0902,0.71626 0.61589,1.15996 0.53061,0.43735 1.24687,0.34715 0.84034,-0.10582 1.2331,-0.80845 0.39842,-0.70331 0.25423,-1.8482 -0.12146,-0.96441 -0.63591,-1.45536 -0.51444,-0.49095 -1.27582,-0.39506 -0.8065,0.10153 -1.22614,0.72735 -0.42034,0.62013 -0.31379,1.46611 z m 10.77556,-1.64152 -3.9736,1.04934 q 0.27017,0.93401 0.8888,1.31741 0.61862,0.38341 1.465,0.1599 0.95081,-0.25109 1.58226,-1.08808 l 0.22351,0.84639 q -0.59972,0.73454 -1.81983,1.05674 -1.19263,0.31494 -2.07586,-0.26902 -0.8847,-0.58947 -1.25189,-1.97996 -0.34688,-1.31354 0.17738,-2.33387 0.52829,-1.02728 1.63298,-1.319 1.1047,-0.29173 1.89793,0.2631 0.79324,0.55483 1.1285,1.8244 z m -1.12506,-0.52011 q -0.2116,-0.77898 -0.69998,-1.11447 -0.48289,-0.33694 -1.1424,-0.16277 -0.63754,0.16835 -0.96225,0.74208 -0.32471,0.57373 -0.23465,1.33776 z m 6.11742,1.62485 q -1.19304,0.49162 -2.2175,0.0346 -1.02139,-0.46444 -1.53467,-1.71002 -0.55876,-1.35596 -0.13174,-2.4234 0.42702,-1.06744 1.68838,-1.58721 1.20355,-0.49596 2.18163,-0.0321 0.98335,0.46167 1.52478,1.77558 0.53061,1.28764 0.1206,2.36651 -0.40692,1.07145 -1.63148,1.57607 z m -1.95973,-4.93477 q -0.83039,0.34219 -1.08001,1.10904 -0.25179,0.76161 0.15753,1.75493 0.39416,0.95653 1.11034,1.30695 0.71617,0.35043 1.53606,0.0125 0.83565,-0.34434 1.05931,-1.06976 0.22892,-0.72758 -0.18258,-1.72616 -0.41581,-1.00909 -1.09303,-1.36943 -0.67197,-0.36249 -1.50762,-0.0181 z m 10.61002,0.32439 -0.80519,0.46983 -0.4641,-0.79537 -0.0197,0.0114 q 0.0321,1.20542 -1.01861,1.81849 -1.79695,1.04852 -3.046,-1.09211 l -1.75327,-3.00474 0.80028,-0.46696 1.67878,2.87708 q 0.9282,1.59074 2.1458,0.88028 0.58917,-0.34379 0.71511,-0.99643 0.12799,-0.66042 -0.28168,-1.3625 l -1.69023,-2.89672 0.80518,-0.46983 z m 4.25327,-3.14305 q -0.1562,0.34261 -0.58971,0.66462 -1.22753,0.91179 -2.24438,-0.4572 l -2.05406,-2.76534 -0.80313,0.59656 -0.47453,-0.63886 0.80313,-0.59656 -0.84738,-1.14081 0.56873,-0.79774 1.02703,1.38268 1.17733,-0.8745 0.47452,0.63885 -1.17731,0.8745 1.95575,2.63301 q 0.34912,0.47001 0.65798,0.55216 0.30884,0.0822 0.67847,-0.1924 0.28293,-0.21015 0.37303,-0.51783 z"
   id="text2" />
  <path
   d="m 76.117347,119.25213 -5.030565,-6.41397 1.77122,-1.38919 q 3.390368,-2.65911 5.842505,0.46735 1.164677,1.48498 0.92955,3.12868 -0.234163,1.63571 -1.813054,2.87406 z m -3.745912,-6.32347 3.964112,5.05426 0.957176,-0.75073 q 1.261323,-0.98927 1.433832,-2.21542 0.172509,-1.22616 -0.799225,-2.46512 -1.932943,-2.46451 -4.553993,-0.40877 z m 13.034732,-3.04044 -3.605135,1.97322 q 0.486639,0.84176 1.179255,1.06531 0.692613,0.22357 1.460513,-0.19671 0.86264,-0.47216 1.274532,-1.43635 l 0.420298,0.76791 q -0.405696,0.8571 -1.512668,1.46299 -1.082039,0.59223 -2.079706,0.23755 -1.000395,-0.35967 -1.690885,-1.62122 -0.65228,-1.19174 -0.388501,-2.30815 0.266035,-1.12411 1.268292,-1.67267 1.002256,-0.54858 1.905551,-0.20055 0.903297,0.348 1.533741,1.49986 z M 84.1891,109.65364 q -0.392533,-0.70534 -0.947213,-0.91367 -0.549692,-0.21106 -1.148056,0.11642 -0.578415,0.3166 -0.755787,0.95154 -0.177371,0.63493 0.0936,1.35495 z m 3.407607,1.97749 -0.365178,-0.93143 q 0.914565,0.24589 1.766606,-0.0882 1.143111,-0.44818 0.844329,-1.21025 -0.08507,-0.21697 -0.243719,-0.32574 -0.15543,-0.11612 -0.370427,-0.16616 -0.209707,-0.052 -0.472541,-0.0528 -0.259635,-0.007 -0.558366,-0.007 -0.415878,-0.003 -0.747104,-0.0368 -0.327995,-0.0425 -0.583768,-0.14967 -0.252556,-0.11468 -0.43911,-0.31018 -0.181263,-0.19759 -0.30368,-0.50983 -0.14939,-0.38104 -0.08886,-0.74058 0.05844,-0.36484 0.272747,-0.67476 0.212225,-0.31522 0.543255,-0.56101 0.336323,-0.24788 0.733237,-0.40349 0.703859,-0.27597 1.354982,-0.25038 l 0.344431,0.87849 q -0.751557,-0.15715 -1.529509,0.14786 -0.243438,0.0954 -0.416427,0.23043 -0.175062,0.1297 -0.278529,0.28626 -0.09817,0.1545 -0.121534,0.32851 -0.02014,0.16665 0.04625,0.336 0.083,0.21169 0.213109,0.32552 0.135402,0.11183 0.327157,0.16481 0.191753,0.0531 0.438714,0.0599 0.246956,0.007 0.558366,0.007 0.413814,-0.003 0.75769,0.0326 0.341799,0.0309 0.615523,0.13722 0.271649,0.10108 0.470862,0.29775 0.204505,0.19457 0.333147,0.52269 0.15769,0.4022 0.09395,0.76912 -0.05845,0.36483 -0.27804,0.67683 -0.219592,0.31202 -0.568573,0.55873 -0.348981,0.24671 -0.772355,0.41272 -0.836165,0.32782 -1.576625,0.24569 z m 3.461063,-8.752 q -0.240078,0.07 -0.457042,-0.0442 -0.216958,-0.1143 -0.290272,-0.36529 -0.07331,-0.25099 0.04803,-0.46409 0.11974,-0.21855 0.359823,-0.28869 0.245536,-0.0718 0.464089,0.0482 0.222418,0.11267 0.295729,0.36369 0.07012,0.24007 -0.05508,0.46022 -0.119741,0.21856 -0.365279,0.29029 z m 2.482902,6.87851 -0.894849,0.26137 -1.632012,-5.58735 0.894849,-0.26138 z m 6.629398,-1.85008 q 0.55072,3.15832 -2.473221,3.68562 -1.063981,0.18554 -1.929469,-0.079 l -0.16014,-0.91838 q 1.062521,0.36866 1.941705,0.21536 2.116759,-0.36911 1.724221,-2.62026 l -0.109364,-0.62719 -0.02238,0.004 q -0.463802,1.21183 -1.779776,1.4413 -1.069579,0.18648 -1.857566,-0.46085 -0.783364,-0.65392 -1.007948,-1.94189 -0.254857,-1.46156 0.294754,-2.44602 0.555212,-0.98541 1.775988,-1.19827 1.159178,-0.20213 1.88126,0.62981 l 0.02238,-0.004 -0.138657,-0.79519 0.918381,-0.16013 z m -1.290419,-1.97343 -0.147445,-0.84557 q -0.11913,-0.68319 -0.668872,-1.08935 -0.544144,-0.40711 -1.23293,-0.28701 -0.851184,0.14844 -1.224388,0.85398 -0.374179,0.69997 -0.179865,1.81436 0.166977,0.95757 0.726744,1.45429 0.56439,0.49015 1.325975,0.35735 0.772786,-0.13476 1.158683,-0.76751 0.391498,-0.63375 0.242098,-1.49054 z m 8.089439,2.17766 -0.9321,0.0165 -0.0585,-3.31917 q -0.0326,-1.85282 -1.38534,-1.82897 -0.69907,0.0123 -1.15011,0.54902 -0.44547,0.53089 -0.43134,1.33226 l 0.0585,3.31917 -0.9321,0.0165 -0.10263,-5.81989 0.9321,-0.0165 0.0171,0.96618 0.0228,-3.9e-4 q 0.63986,-1.11422 1.89022,-1.13627 0.95483,-0.0169 1.47158,0.59374 0.51666,0.6049 0.53722,1.77 z m 6.74216,-1.93019 -4.07591,-0.52674 q -0.10204,0.96693 0.32631,1.55533 0.42834,0.5884 1.29652,0.70061 0.97529,0.12599 1.87578,-0.41101 l -0.11217,0.86818 q -0.83247,0.45413 -2.08399,0.29239 -1.22333,-0.1581 -1.82112,-1.03206 -0.59706,-0.87959 -0.41273,-2.30587 0.17412,-1.34738 1.04447,-2.09465 0.87671,-0.75217 2.00985,-0.60574 1.13313,0.14644 1.65855,0.95946 0.52542,0.81302 0.35711,2.11528 z m -0.84582,-0.90601 q 0.0978,-0.80125 -0.22798,-1.29616 -0.32016,-0.49417 -0.99666,-0.58159 -0.65395,-0.0844 -1.17107,0.32438 -0.5171,0.4089 -0.72184,1.15048 z m 6.66819,5.21653 -0.89651,-0.25562 0.2712,-0.95118 -0.0219,-0.005 q -0.93179,0.90467 -2.23282,0.53372 -1.05506,-0.3008 -1.47564,-1.23053 -0.41356,-0.93362 -0.0442,-2.22919 0.39589,-1.3885 1.33409,-2.02538 0.93818,-0.63687 2.10256,-0.30488 1.15343,0.32887 1.41948,1.38595 l 0.022,0.005 0.98817,-3.46576 0.89652,0.25563 z m -0.17485,-2.78663 0.23535,-0.82544 q 0.19328,-0.67784 -0.12093,-1.27577 -0.31423,-0.59794 -1.003,-0.79431 -0.81998,-0.23381 -1.46155,0.23346 -0.64157,0.46728 -0.94396,1.52779 -0.27586,0.96758 0.0117,1.65844 0.29474,0.68693 1.05459,0.9036 0.74892,0.21352 1.36788,-0.19518 0.62443,-0.40713 0.85978,-1.23259 z m 10.9538,-0.84391 q -0.17316,-0.26081 -0.48194,-0.41858 -0.87064,-0.44483 -1.43187,0.65362 l -0.40862,0.79978 1.21487,0.6207 -0.36208,0.70868 -1.21486,-0.62069 -2.28624,4.47479 -0.82512,-0.42157 2.28625,-4.47479 -0.88584,-0.45259 0.36206,-0.70867 0.88585,0.45258 0.42932,-0.84028 q 0.41638,-0.81497 1.12768,-1.04522 0.71386,-0.23531 1.41747,0.12416 0.37964,0.19396 0.55583,0.39889 z m -0.92696,8.78587 q -1.07004,-0.72111 -1.25686,-1.82722 -0.17893,-1.10766 0.57397,-2.22485 0.81958,-1.21619 1.94488,-1.45177 1.12527,-0.23559 2.25661,0.52684 1.07947,0.72746 1.23493,1.79873 0.16016,1.07446 -0.63401,2.25292 -0.77831,1.15491 -1.90369,1.41099 -1.1175,0.25456 -2.21583,-0.48564 z m 3.02364,-4.36462 q -0.7448,-0.50194 -1.52156,-0.2851 -0.77358,0.21214 -1.37398,1.10306 -0.57817,0.85792 -0.47333,1.64831 0.10482,0.7904 0.84019,1.28597 0.7495,0.5051 1.47739,0.28959 0.73258,-0.21233 1.33617,-1.10796 0.60995,-0.90506 0.53493,-1.66851 -0.0704,-0.76028 -0.81981,-1.26536 z m 6.06793,5.19661 q -0.0606,-0.30209 -0.40725,-0.60511 -0.44938,-0.39281 -1.12361,-0.23471 -0.66995,0.16184 -1.30966,0.8937 l -1.9528,2.23409 -0.70189,-0.61352 3.83077,-4.38259 0.70189,0.61352 -0.78935,0.90306 0.0172,0.0149 q 0.55382,-0.3313 1.08643,-0.31875 0.53633,0.009 0.91726,0.34124 0.27391,0.23941 0.36705,0.42652 z"
   id="text1" />
  </g>
</svg>
