<?xml version="1.0" encoding="UTF-8" standalone="no"?>
<!-- Created with Inkscape (http://www.inkscape.org/) -->

<svg
   width="71.941711mm"
   height="95.409325mm"
   viewBox="0 0 71.94171 95.409324"
   version="1.1"
   id="svg1"
   xml:space="preserve"
   inkscape:version="1.3.2 (091e20e, 2023-11-25, custom)"
   sodipodi:docname="tt-designed-for.svg"
   xmlns:inkscape="http://www.inkscape.org/namespaces/inkscape"
   xmlns:sodipodi="http://sodipodi.sourceforge.net/DTD/sodipodi-0.dtd"
   xmlns:xlink="http://www.w3.org/1999/xlink"
   xmlns="http://www.w3.org/2000/svg"
   xmlns:svg="http://www.w3.org/2000/svg"><sodipodi:namedview
     id="namedview1"
     pagecolor="#ffffff"
     bordercolor="#666666"
     borderopacity="1.0"
     inkscape:showpageshadow="2"
     inkscape:pageopacity="0.0"
     inkscape:pagecheckerboard="0"
     inkscape:deskcolor="#d1d1d1"
     inkscape:document-units="mm"
     inkscape:zoom="1.375477"
     inkscape:cx="138.49741"
     inkscape:cy="167.94174"
     inkscape:window-width="1920"
     inkscape:window-height="1010"
     inkscape:window-x="-6"
     inkscape:window-y="-6"
     inkscape:window-maximized="1"
     inkscape:current-layer="layer1" /><defs
     id="defs1" /><g
     inkscape:label="Layer 1"
     inkscape:groupmode="layer"
     id="layer1"
     transform="translate(-69.056343,-100.98769)"><g
       id="g1"
       transform="matrix(0.26458333,0,0,0.26458333,14.777084,87.778126)">
	<path
   d="m 341,96.4 c -44.5,0 -83.9,21.9 -108.1,55.5 -7.9,11 -14.2,23.2 -18.5,36.4 h 21.6 52.1 v 90.1 h 39.3 v -24.3 h 22.7 v 87.8 c -3,0.3 -6.1,0.4 -9.2,0.4 -62.2,0 -112.8,-50.6 -112.8,-112.8 0,-10.3 1.4,-20.2 4,-29.6 h -21 c -2.2,9.5 -3.3,19.4 -3.3,29.6 0,73.4 59.7,133.1 133.1,133.1 3.1,0 6.1,-0.1 9.2,-0.3 1.7,-0.1 3.4,-0.3 5.1,-0.5 0.1,0 0.3,0 0.4,0 11.8,-1.3 23.1,-4.1 33.8,-8.3 v 0 c 0,0 0,0 0,0 V 254.1 H 428 V 217.7 H 327.5 V 188.2 H 366 V 151.8 H 259.3 c 20.5,-21.6 49.6,-35.1 81.7,-35.1 62.2,0 112.8,50.6 112.8,112.8 0,40.1 -21,75.4 -52.6,95.4 v 23.4 c 43.3,-22 73,-67 73,-118.8 C 474.1,156.1 414.4,96.4 341,96.4 Z"
   id="path1" />
</g><text
       xml:space="preserve"
       style="font-style:normal;font-weight:normal;font-size:10.5833px;line-height:1.25;font-family:sans-serif;letter-spacing:0.640292px;fill:#000000;fill-opacity:1;stroke:none;stroke-width:0.264583"
       id="text2"
       transform="translate(-0.76943005,-2.0193868)"><textPath
         xlink:href="#path3"
         id="textPath3"
         style="font-weight:bold;line-height:1.25;letter-spacing:0.640292px;writing-mode:lr-tb;direction:ltr;stroke-width:0.264583">Tiny Tapeout</textPath></text><text
       xml:space="preserve"
       style="font-style:normal;font-weight:normal;font-size:10.5833px;line-height:1.25;font-family:sans-serif;fill:#000000;fill-opacity:1;stroke:none;stroke-width:0.264583"
       id="text1"><textPath
         xlink:href="#path2"
         id="textPath2"><tspan
           id="tspan1"
           style="font-weight:bold;stroke-width:0.264583">Designed for</tspan></textPath></text><circle
       style="opacity:0.5;fill:none;stroke-width:1.69787;stroke-linecap:round;stroke-linejoin:round"
       id="path2"
       cx="-178.87729"
       cy="-31.273937"
       r="39.426811"
       transform="rotate(-135)" /><circle
       style="opacity:0.5;fill:none;stroke-width:2.52476;stroke-linecap:round;stroke-linejoin:round"
       id="path3"
       cx="49.149727"
       cy="173.40146"
       r="49.051167"
       transform="matrix(-0.62806288,0.77816259,0.77816259,0.62806288,0,0)" /></g></svg>
